<svg version="1" xmlns="http://www.w3.org/2000/svg" width="1066.667" height="1066.667" viewBox="0 0 800.000000 800.000000"><path d="M353 30.6L307.5 57h-106L175 102.9l-26.4 45.9-45.8 26.3L57 201.5v105.8l-26.5 45.9C15.9 378.5 4 399.6 4 400.1s11.9 21.6 26.5 46.8L57 492.8V598.5l45.8 26.4 45.8 26.4 26.4 45.9 26.5 45.8h105.8l46 26.5c25.2 14.6 46.3 26.5 46.7 26.5.4 0 21.5-11.9 46.7-26.5l46-26.5h105.8l26.5-45.8 26.4-45.9 45.8-26.4 45.8-26.4V492.8l26.5-45.9c14.6-25.2 26.5-46.3 26.5-46.8s-11.9-21.6-26.5-46.9L743 307.3V201.5l-45.8-26.4-45.8-26.3-26.4-45.9L598.5 57H492.4l-45.8-26.5c-25.3-14.6-46.4-26.5-47-26.4-.6.1-21.6 12-46.6 26.5zM547.6 144c80.3 46.3 146.5 84.7 147.2 85.2.9.8 1.2 36.2 1.2 170.9v169.8l-2.7 1.9c-6.7 4.5-292 168.6-293.3 168.6-1.3 0-286.6-164.1-293.2-168.6l-2.8-1.9V230l2.3-1.4c10.1-6.7 293.5-169.5 294.3-169.2.7.3 66.8 38.3 147 84.6z"/><path d="M259 156.3l-140.5 81.2-.2 162.5-.2 162.5L259 643.8l141 81.3 141-81.3 140.9-81.3-.2-162.5-.2-162.5L541 156.3c-77.3-44.6-140.7-81.2-141-81.2-.3 0-63.7 36.6-141 81.2zm307.1 97.6c2.4 1.9 2.4 2 2.4 23.6s0 21.7-2.4 23.6c-2.2 1.8-4.2 1.9-30.6 1.9h-28.4l-2-2.6c-2-2.5-2.1-3.9-2.1-23.1 0-20.3 0-20.4 2.5-22.8l2.4-2.5h27.9c26.1 0 28.1.1 30.3 1.9zm-194.6 7.6c15.6 2.4 25.1 5.2 36.5 10.7 9.1 4.4 11.6 6.2 19.1 13.7 13.2 13.2 19.6 26.5 24 50.2 2.1 11.1 2.2 14.2 2.6 107.3.3 52.7.2 97-.2 98.3-.3 1.3-1.4 3.2-2.5 4.3-1.9 1.9-3.5 2-30.4 2-26.4 0-28.5-.1-30.7-1.9l-2.4-1.9-.5-98.4c-.5-85.1-.8-99-2.1-103.3-5-15.9-13.2-23-29.9-25.6-7.4-1.1-38.9-.7-52.2.8l-5.8.6v112.8c0 111.6 0 112.9-2 114.9-1.9 1.9-3.3 2-30.4 2-26.5 0-28.5-.1-30.7-1.9l-2.4-1.9-.3-129.4c-.2-93.2.1-130.8.9-134.8 1.6-7.8 5.4-11.3 14.4-13.3 7.2-1.6 39.2-5.1 62-6.7 17.5-1.2 50.7-.4 63 1.5zm193 69l2.5 2.4v210.2l-2.5 2.4-2.4 2.5h-26.2c-25.6 0-26.3-.1-28.6-2.2l-2.3-2.1V332.6l2.2-2.3c2.1-2.3 2.2-2.3 28.5-2.3h26.4l2.4 2.5z"/></svg>